PathFileType	4	(X/Y/Z)	output.trc
DataRate	CameraRate	NumFrames	NumMarkers	Units	OrigDataRate	OrigDataStartFrame	OrigNumFrames
50	50	10	18	mm	50	340	1
Frame#	Time	K4ABT_JOINT_PELVIS			K4ABT_JOINT_SPINE_NAVEL			K4ABT_JOINT_SPINE_CHEST			K4ABT_JOINT_NECK			K4ABT_JOINT_CLAVICLE_LEFT			K4ABT_JOINT_SHOULDER_LEFT			K4ABT_JOINT_ELBOW_LEFT			K4ABT_JOINT_WRIST_LEFT			K4ABT_JOINT_HAND_LEFT			K4ABT_JOINT_HANDTIP_LEFT			K4ABT_JOINT_THUMB_LEFT			K4ABT_JOINT_CLAVICLE_RIGHT			K4ABT_JOINT_SHOULDER_RIGHT			K4ABT_JOINT_ELBOW_RIGHT			K4ABT_JOINT_WRIST_RIGHT			K4ABT_JOINT_HAND_RIGHT			K4ABT_JOINT_HANDTIP_RIGHT			K4ABT_JOINT_THUMB_RIGHT		
		X1	Y1	Z1	X2	Y2	Z2	X3	Y3	Z3	X4	Y4	Z4	X5	Y5	Z5	X6	Y6	Z6	X7	Y7	Z7	X8	Y8	Z8	X9	Y9	Z9	X10	Y10	Z10	X11	Y11	Z11	X12	Y12	Z12	X13	Y13	Z13	X14	Y14	Z14	X15	Y15	Z15	X16	Y16	Z16	X17	Y17	Z17	X18	Y18	Z18
339	11600211.000000	-87.104927	-179.442978	1493.843262	-68.053467	-367.410767	1485.413696	-43.343224	-514.278198	1459.371948	-13.091939	-742.351196	1465.118896	-38.856075	-708.466675	1435.324463	-125.986603	-702.227356	1311.499268	-222.798615	-436.920197	1233.709229	-352.984680	-544.276794	1412.525513	-371.447906	-595.876709	1498.641113	-354.861053	-707.482117	1518.369263	-317.599579	-602.275818	1519.517090	4.348753	-700.680664	1491.554199	81.675972	-634.009766	1586.475098	97.829033	-336.431305	1569.877319	-36.598362	-128.660385	1542.495239	-8.915174	-35.792751	1490.642822	-1.544498	-107.616264	1404.253418	-42.029381	-91.515526	1393.961670
340	11633555.000000	-106.561661	-159.090195	1501.590942	-94.273239	-349.354980	1488.585938	-76.070480	-497.863922	1457.682251	-41.259735	-727.723389	1451.663452	-72.528549	-693.268127	1427.337891	-174.621857	-682.933594	1313.679688	-270.201447	-408.185669	1258.897705	-372.827881	-517.096741	1457.218628	-380.910248	-560.433472	1550.470337	-361.250214	-670.159485	1519.314575	-326.025299	-568.470886	1565.327148	-20.078577	-685.958679	1476.246582	76.922928	-614.992249	1549.725586	63.441208	-314.308411	1530.303467	-44.310131	-89.049904	1561.058960	-3.041994	-5.950607	1500.019287	-11.829338	-82.207443	1416.047241	-45.888779	-89.295441	1409.842285
341	11666888.000000	-117.852173	-144.017242	1498.590454	-111.306297	-334.030731	1489.249878	-98.168549	-482.904572	1460.566772	-66.657150	-711.296204	1438.100830	-101.383759	-675.945068	1421.384399	-221.474823	-662.684998	1328.287964	-314.380707	-388.701996	1271.370728	-411.860382	-466.715424	1485.038696	-437.738403	-513.212341	1572.927368	-387.738373	-611.503296	1539.295288	-373.917999	-519.790039	1594.624390	-41.260902	-670.832642	1460.306763	70.092766	-608.944031	1519.125488	70.829842	-308.799896	1532.212158	-110.734970	-191.447281	1658.960815	-135.982132	-84.547440	1645.810425	-53.600437	-83.160034	1568.004761	-71.931717	-151.675110	1515.764160
342	11700222.000000	-127.352592	-131.201355	1490.809937	-123.959648	-319.240509	1485.013428	-114.408142	-466.967041	1458.310913	-92.901695	-693.805725	1435.707520	-127.238632	-657.792603	1421.694824	-256.101318	-636.587769	1346.358032	-347.811584	-365.393188	1291.716187	-434.364960	-393.178589	1518.814575	-482.521851	-436.274231	1597.156982	-455.449707	-392.565735	1495.451904	-482.092285	-442.119202	1636.248535	-64.748985	-654.570679	1455.194336	49.435093	-596.800903	1508.695435	95.057724	-328.343719	1627.172241	-95.928986	-369.304077	1779.514038	-194.553757	-348.327332	1737.202515	-147.617752	-257.464874	1691.499512	-106.938820	-320.667877	1629.469971
343	11733544.000000	-133.124985	-115.436211	1481.905640	-133.361191	-300.381500	1477.646729	-129.422211	-446.240906	1453.518188	-101.969673	-666.054016	1413.404907	-139.529526	-632.124573	1408.795776	-278.599548	-614.054565	1360.778198	-389.770752	-352.507507	1324.119019	-459.849243	-338.106995	1553.733887	-455.704376	-382.722504	1642.964478	-438.396210	-352.533234	1536.460449	-419.638611	-354.733704	1670.895630	-72.998871	-626.903442	1429.190430	49.113132	-573.421509	1457.902832	96.182846	-324.165833	1602.478394	-38.864487	-438.188873	1770.037231	-99.762123	-518.617493	1732.874878	-104.395058	-437.154785	1658.904785	-77.870392	-451.112549	1626.432861
344	11766888.000000	-148.412186	-123.210655	1484.631226	-145.471512	-310.288910	1478.285400	-140.565262	-457.372131	1451.047363	-115.254761	-682.425659	1426.321167	-153.622086	-648.462646	1421.863525	-296.324860	-616.510132	1388.444458	-409.377106	-350.340851	1366.986572	-463.125458	-326.811188	1603.189697	-489.662415	-331.169769	1700.589600	-437.042725	-344.694336	1601.067261	-429.960602	-300.702850	1725.573486	-84.927261	-641.742432	1436.785400	39.588459	-584.128662	1451.631958	113.185226	-323.182892	1569.062256	-28.218821	-451.485291	1724.905029	-84.262054	-533.072144	1679.744995	-111.452286	-472.636230	1590.137207	-98.465530	-483.426941	1606.273071
345	11800211.000000	-160.854446	-130.738739	1487.948608	-153.183929	-320.165680	1485.951782	-145.843826	-470.387146	1467.159546	-120.637489	-698.692627	1445.423096	-159.845383	-664.531677	1442.427612	-304.896698	-631.444641	1411.704590	-416.847809	-361.750641	1380.488892	-464.658844	-314.420471	1617.609985	-484.615295	-330.327545	1716.707642	-439.199310	-342.716980	1611.970703	-422.519531	-311.104919	1739.305176	-89.557961	-657.174133	1453.388916	36.877258	-598.001587	1460.077271	129.581085	-326.202942	1544.147827	-2.631739	-415.643860	1736.034302	-55.607151	-510.282532	1716.613281	-73.397507	-456.310394	1619.093018	-75.524162	-456.861481	1622.398926
346	11833555.000000	-167.723450	-137.304092	1491.898560	-160.578537	-325.627014	1489.725708	-154.038589	-475.370117	1474.341309	-122.136299	-701.176147	1449.906738	-162.244431	-668.476135	1448.106323	-309.629456	-643.699036	1426.426270	-427.248413	-378.566162	1393.333496	-453.507935	-347.306580	1634.930298	-477.097382	-365.684662	1732.161133	-437.272064	-372.976440	1625.432007	-416.996765	-345.203339	1753.272461	-92.425827	-658.996887	1457.580933	35.152851	-604.242554	1462.795288	150.768906	-336.245300	1520.157593	15.908122	-434.130798	1703.995239	-27.670019	-534.469727	1698.531494	-39.532166	-472.667908	1605.638062	-54.378063	-458.378143	1591.981934
347	11866888.000000	-172.846542	-147.512482	1493.992554	-164.850647	-336.086456	1492.393311	-158.018631	-486.193848	1478.577026	-123.838066	-712.464294	1458.763550	-164.667694	-680.507996	1459.703857	-314.242493	-658.330200	1456.631348	-428.805084	-394.164825	1405.939697	-423.078156	-331.184265	1643.035400	-426.011047	-359.228149	1740.931885	-396.042480	-342.672333	1631.859497	-361.724731	-336.341705	1763.626465	-94.373650	-669.462952	1462.155640	33.646427	-615.881531	1452.221924	166.195847	-353.454132	1500.232178	75.912285	-441.876068	1714.190796	72.462540	-551.249390	1721.804321	49.065865	-490.170013	1630.433716	20.706303	-494.494049	1607.504150
348	11900222.000000	-182.817871	-155.640015	1498.245239	-172.767578	-345.029236	1498.369263	-164.982773	-495.873810	1485.174072	-126.266853	-722.260254	1462.438354	-167.925186	-691.271667	1466.831787	-318.239044	-674.754639	1481.893188	-444.942993	-413.550476	1436.968750	-404.836884	-342.074524	1669.510376	-393.159119	-340.487061	1771.194702	-349.963959	-290.842865	1677.044189	-339.438538	-326.029755	1806.426514	-97.664726	-678.259033	1463.346069	30.203983	-625.290161	1443.626099	165.259476	-361.538483	1485.947021	103.502159	-512.987061	1674.603027	92.213341	-619.287659	1647.753906	43.211433	-569.914856	1558.819824	52.081829	-549.811035	1543.261719
